# Blender 3.4.1
# www.blender.org
mtllib PannelloFoto.mtl
o Cube
v -0.100000 1.000000 1.000000
v -0.100000 -1.000000 1.000000
v -0.100000 1.000000 -1.000000
v -0.100000 -1.000000 -1.000000
v 0.100000 1.000000 1.000000
v 0.100000 -1.000000 1.000000
v 0.100000 1.000000 -1.000000
v 0.100000 -1.000000 -1.000000
vn -0.0000 1.0000 -0.0000
vn -0.0000 -0.0000 -1.0000
vn 1.0000 -0.0000 -0.0000
vn -0.0000 -1.0000 -0.0000
vn -1.0000 -0.0000 -0.0000
vn -0.0000 -0.0000 1.0000
vt 0.999492 0.999661
vt 1.001989 0.003174
vt 1.001989 0.003174
vt 0.005501 0.000677
vt 0.999492 0.999661
vt 0.003005 0.997165
vt 0.003005 0.997165
vt 0.005501 0.000677
vt 1.246995 0.504993
vt 0.629993 -0.251819
vt -0.249492 0.502497
vt 0.379993 -0.251819
vt 1.246995 0.754993
vt 0.627497 1.244668
vt 0.625000 0.000000
vt 0.377497 1.244668
vt 0.375000 0.000000
vt -0.249492 0.752497
s 0
usemtl Material
f 1/2/1 5/9/1 7/13/1 3/5/1
f 4/7/2 3/5/2 7/14/2 8/16/2
f 8/17/3 7/15/3 5/10/3 6/12/3
f 6/11/4 2/4/4 4/7/4 8/18/4
f 2/3/5 1/1/5 3/6/5 4/8/5
f 6/12/6 5/10/6 1/2/6 2/4/6
